<mxfile host="Electron" modified="2023-11-28T14:18:45.289Z" agent="Mozilla/5.0 (Windows NT 10.0; Win64; x64) AppleWebKit/537.36 (KHTML, like Gecko) draw.io/22.1.2 Chrome/114.0.5735.289 Electron/25.9.4 Safari/537.36" etag="TYKatFe4yyEul9fUKhqy" version="22.1.2" type="device">
  <diagram name="Page-1" id="LX-VtFpkaipy7AE87t0e">
    <mxGraphModel dx="1050" dy="717" grid="1" gridSize="10" guides="1" tooltips="1" connect="1" arrows="1" fold="1" page="1" pageScale="1" pageWidth="827" pageHeight="1169" math="0" shadow="0">
      <root>
        <mxCell id="0" />
        <mxCell id="1" parent="0" />
        <mxCell id="tWZ-o21t5LeQAQk3vxvz-1" value="" style="ellipse;html=1;shape=startState;fillColor=#000000;strokeColor=#ff0000;" vertex="1" parent="1">
          <mxGeometry x="399" y="50" width="30" height="30" as="geometry" />
        </mxCell>
        <mxCell id="tWZ-o21t5LeQAQk3vxvz-2" value="" style="edgeStyle=orthogonalEdgeStyle;html=1;verticalAlign=bottom;endArrow=open;endSize=8;strokeColor=#ff0000;rounded=0;" edge="1" source="tWZ-o21t5LeQAQk3vxvz-1" parent="1">
          <mxGeometry relative="1" as="geometry">
            <mxPoint x="414" y="140" as="targetPoint" />
          </mxGeometry>
        </mxCell>
        <mxCell id="tWZ-o21t5LeQAQk3vxvz-11" value="Consultation du document" style="html=1;whiteSpace=wrap;rounded=1;glass=0;shadow=0;" vertex="1" parent="1">
          <mxGeometry x="359" y="140" width="110" height="50" as="geometry" />
        </mxCell>
        <mxCell id="tWZ-o21t5LeQAQk3vxvz-12" value="Object" style="html=1;whiteSpace=wrap;" vertex="1" parent="1">
          <mxGeometry x="359" y="280" width="110" height="50" as="geometry" />
        </mxCell>
      </root>
    </mxGraphModel>
  </diagram>
</mxfile>
